{
    "asset" : {
        "generator" : "Khronos glTF Blender I/O v3.2.43",
        "version" : "2.0"
    },
    "scene" : 0,
    "scenes" : [
        {
            "name" : "Scene",
            "nodes" : [
                0,
                1
            ]
        }
    ],
    "nodes" : [
        {
            "mesh" : 0,
            "name" : "Cube.008",
            "rotation" : [
                -0.002604998182505369,
                0.3826819062232971,
                -0.0010790255619212985,
                0.9238758683204651
            ],
            "translation" : [
                0,
                0.4910467565059662,
                -0.12907177209854126
            ]
        },
        {
            "mesh" : 1,
            "name" : "Cylinder.001",
            "scale" : [
                0.863361656665802,
                1,
                0.863361656665802
            ],
            "translation" : [
                0.016764428466558456,
                0.025288306176662445,
                -0.03408920392394066
            ]
        }
    ],
    "materials" : [
        {
            "doubleSided" : true,
            "name" : "cake",
            "pbrMetallicRoughness" : {
                "baseColorFactor" : [
                    1,
                    0.8042697310447693,
                    0.4062899053096771,
                    1
                ],
                "metallicFactor" : 0,
                "roughnessFactor" : 0.5
            }
        },
        {
            "doubleSided" : true,
            "name" : "cream",
            "pbrMetallicRoughness" : {
                "baseColorFactor" : [
                    1,
                    0.46959760785102844,
                    0.548110842704773,
                    1
                ],
                "metallicFactor" : 0,
                "roughnessFactor" : 0.5
            }
        },
        {
            "doubleSided" : true,
            "name" : "whipcream",
            "pbrMetallicRoughness" : {
                "baseColorFactor" : [
                    0.6500053405761719,
                    0.6500053405761719,
                    0.6500053405761719,
                    1
                ],
                "metallicFactor" : 0,
                "roughnessFactor" : 0.5
            }
        },
        {
            "doubleSided" : true,
            "name" : "strawberry",
            "pbrMetallicRoughness" : {
                "baseColorFactor" : [
                    0.8000000715255737,
                    0.08665655553340912,
                    0.09980560839176178,
                    1
                ],
                "metallicFactor" : 0,
                "roughnessFactor" : 0.5
            }
        },
        {
            "doubleSided" : true,
            "name" : "strawberry_stem",
            "pbrMetallicRoughness" : {
                "baseColorFactor" : [
                    0.14308863878250122,
                    0.226583793759346,
                    0.04563405364751816,
                    1
                ],
                "metallicFactor" : 0,
                "roughnessFactor" : 0.5
            }
        },
        {
            "doubleSided" : true,
            "name" : "plate",
            "pbrMetallicRoughness" : {
                "baseColorFactor" : [
                    0.5371559262275696,
                    0.8000000715255737,
                    0.7544740438461304,
                    1
                ],
                "metallicFactor" : 0,
                "roughnessFactor" : 0
            }
        }
    ],
    "meshes" : [
        {
            "name" : "Cube.016",
            "primitives" : [
                {
                    "attributes" : {
                        "POSITION" : 0,
                        "NORMAL" : 1,
                        "TEXCOORD_0" : 2
                    },
                    "indices" : 3,
                    "material" : 0
                },
                {
                    "attributes" : {
                        "POSITION" : 4,
                        "NORMAL" : 5,
                        "TEXCOORD_0" : 6
                    },
                    "indices" : 7,
                    "material" : 1
                },
                {
                    "attributes" : {
                        "POSITION" : 8,
                        "NORMAL" : 9,
                        "TEXCOORD_0" : 10
                    },
                    "indices" : 11,
                    "material" : 2
                },
                {
                    "attributes" : {
                        "POSITION" : 12,
                        "NORMAL" : 13,
                        "TEXCOORD_0" : 14
                    },
                    "indices" : 15,
                    "material" : 3
                },
                {
                    "attributes" : {
                        "POSITION" : 16,
                        "NORMAL" : 17,
                        "TEXCOORD_0" : 18
                    },
                    "indices" : 19,
                    "material" : 4
                }
            ]
        },
        {
            "name" : "Cylinder.002",
            "primitives" : [
                {
                    "attributes" : {
                        "POSITION" : 20,
                        "NORMAL" : 21,
                        "TEXCOORD_0" : 22
                    },
                    "indices" : 23,
                    "material" : 5
                }
            ]
        }
    ],
    "accessors" : [
        {
            "bufferView" : 0,
            "componentType" : 5126,
            "count" : 798,
            "max" : [
                0.39683324098587036,
                0.19194892048835754,
                0.40965428948402405
            ],
            "min" : [
                -0.40965428948402405,
                -0.5187269449234009,
                -0.3968331813812256
            ],
            "type" : "VEC3"
        },
        {
            "bufferView" : 1,
            "componentType" : 5126,
            "count" : 798,
            "type" : "VEC3"
        },
        {
            "bufferView" : 2,
            "componentType" : 5126,
            "count" : 798,
            "type" : "VEC2"
        },
        {
            "bufferView" : 3,
            "componentType" : 5123,
            "count" : 4128,
            "type" : "SCALAR"
        },
        {
            "bufferView" : 4,
            "componentType" : 5126,
            "count" : 513,
            "max" : [
                0.381248414516449,
                -0.03541767597198486,
                0.3736780285835266
            ],
            "min" : [
                -0.3736780285835266,
                -0.35270825028419495,
                -0.381248414516449
            ],
            "type" : "VEC3"
        },
        {
            "bufferView" : 5,
            "componentType" : 5126,
            "count" : 513,
            "type" : "VEC3"
        },
        {
            "bufferView" : 6,
            "componentType" : 5126,
            "count" : 513,
            "type" : "VEC2"
        },
        {
            "bufferView" : 7,
            "componentType" : 5123,
            "count" : 2736,
            "type" : "SCALAR"
        },
        {
            "bufferView" : 8,
            "componentType" : 5126,
            "count" : 278,
            "max" : [
                0.19219240546226501,
                0.333135724067688,
                0.2033655047416687
            ],
            "min" : [
                -0.22609952092170715,
                0.044419050216674805,
                -0.2132093906402588
            ],
            "type" : "VEC3"
        },
        {
            "bufferView" : 9,
            "componentType" : 5126,
            "count" : 278,
            "type" : "VEC3"
        },
        {
            "bufferView" : 10,
            "componentType" : 5126,
            "count" : 278,
            "type" : "VEC2"
        },
        {
            "bufferView" : 11,
            "componentType" : 5123,
            "count" : 1440,
            "type" : "SCALAR"
        },
        {
            "bufferView" : 12,
            "componentType" : 5126,
            "count" : 257,
            "max" : [
                0.00490415096282959,
                0.45369625091552734,
                0.31608015298843384
            ],
            "min" : [
                -0.31923913955688477,
                0.12130314111709595,
                -0.02124696969985962
            ],
            "type" : "VEC3"
        },
        {
            "bufferView" : 13,
            "componentType" : 5126,
            "count" : 257,
            "type" : "VEC3"
        },
        {
            "bufferView" : 14,
            "componentType" : 5126,
            "count" : 257,
            "type" : "VEC2"
        },
        {
            "bufferView" : 15,
            "componentType" : 5123,
            "count" : 1344,
            "type" : "SCALAR"
        },
        {
            "bufferView" : 16,
            "componentType" : 5126,
            "count" : 147,
            "max" : [
                0.0022959262132644653,
                0.5069562792778015,
                0.1166633665561676
            ],
            "min" : [
                -0.249022975564003,
                0.31362542510032654,
                -0.07350870966911316
            ],
            "type" : "VEC3"
        },
        {
            "bufferView" : 17,
            "componentType" : 5126,
            "count" : 147,
            "type" : "VEC3"
        },
        {
            "bufferView" : 18,
            "componentType" : 5126,
            "count" : 147,
            "type" : "VEC2"
        },
        {
            "bufferView" : 19,
            "componentType" : 5123,
            "count" : 396,
            "type" : "SCALAR"
        },
        {
            "bufferView" : 20,
            "componentType" : 5126,
            "count" : 504,
            "max" : [
                1,
                0.04071052744984627,
                1
            ],
            "min" : [
                -1,
                -0.08478090912103653,
                -1
            ],
            "type" : "VEC3"
        },
        {
            "bufferView" : 21,
            "componentType" : 5126,
            "count" : 504,
            "type" : "VEC3"
        },
        {
            "bufferView" : 22,
            "componentType" : 5126,
            "count" : 504,
            "type" : "VEC2"
        },
        {
            "bufferView" : 23,
            "componentType" : 5123,
            "count" : 1716,
            "type" : "SCALAR"
        }
    ],
    "bufferViews" : [
        {
            "buffer" : 0,
            "byteLength" : 9576,
            "byteOffset" : 0
        },
        {
            "buffer" : 0,
            "byteLength" : 9576,
            "byteOffset" : 9576
        },
        {
            "buffer" : 0,
            "byteLength" : 6384,
            "byteOffset" : 19152
        },
        {
            "buffer" : 0,
            "byteLength" : 8256,
            "byteOffset" : 25536
        },
        {
            "buffer" : 0,
            "byteLength" : 6156,
            "byteOffset" : 33792
        },
        {
            "buffer" : 0,
            "byteLength" : 6156,
            "byteOffset" : 39948
        },
        {
            "buffer" : 0,
            "byteLength" : 4104,
            "byteOffset" : 46104
        },
        {
            "buffer" : 0,
            "byteLength" : 5472,
            "byteOffset" : 50208
        },
        {
            "buffer" : 0,
            "byteLength" : 3336,
            "byteOffset" : 55680
        },
        {
            "buffer" : 0,
            "byteLength" : 3336,
            "byteOffset" : 59016
        },
        {
            "buffer" : 0,
            "byteLength" : 2224,
            "byteOffset" : 62352
        },
        {
            "buffer" : 0,
            "byteLength" : 2880,
            "byteOffset" : 64576
        },
        {
            "buffer" : 0,
            "byteLength" : 3084,
            "byteOffset" : 67456
        },
        {
            "buffer" : 0,
            "byteLength" : 3084,
            "byteOffset" : 70540
        },
        {
            "buffer" : 0,
            "byteLength" : 2056,
            "byteOffset" : 73624
        },
        {
            "buffer" : 0,
            "byteLength" : 2688,
            "byteOffset" : 75680
        },
        {
            "buffer" : 0,
            "byteLength" : 1764,
            "byteOffset" : 78368
        },
        {
            "buffer" : 0,
            "byteLength" : 1764,
            "byteOffset" : 80132
        },
        {
            "buffer" : 0,
            "byteLength" : 1176,
            "byteOffset" : 81896
        },
        {
            "buffer" : 0,
            "byteLength" : 792,
            "byteOffset" : 83072
        },
        {
            "buffer" : 0,
            "byteLength" : 6048,
            "byteOffset" : 83864
        },
        {
            "buffer" : 0,
            "byteLength" : 6048,
            "byteOffset" : 89912
        },
        {
            "buffer" : 0,
            "byteLength" : 4032,
            "byteOffset" : 95960
        },
        {
            "buffer" : 0,
            "byteLength" : 3432,
            "byteOffset" : 99992
        }
    ],
    "buffers" : [
        {
            "byteLength" : 103424,
            "uri" : "data:application/octet-stream;base64,"
        }
    ]
}
